<svg width="212" height="50" viewBox="0 0 212 50" fill="none" xmlns="http://www.w3.org/2000/svg">
<path d="M0.924 10.644L0.66 8.07C0.66 7.498 0.902 7.058 1.386 6.75C3.894 5.078 7.436 3.692 12.012 2.592C13.904 2.196 15.466 1.998 16.698 1.998C22.946 1.998 27.456 5.826 30.228 13.482C31.196 16.21 31.68 19.092 31.68 22.128C31.68 26.704 30.47 31.324 28.05 35.988C25.63 40.652 23.144 44.414 20.592 47.274C19.184 48.77 17.688 49.518 16.104 49.518C14.52 49.518 13.288 48.902 12.408 47.67C11.528 46.438 11.088 44.876 11.088 42.984C11.088 41.048 11.44 38.892 12.144 36.516C12.848 34.14 13.948 32.644 15.444 32.028C15.224 33.04 15.114 34.118 15.114 35.262C15.114 36.362 15.488 37.726 16.236 39.354C17.028 40.982 17.952 41.796 19.008 41.796C20.064 41.796 20.922 41.18 21.582 39.948C24.31 35.02 25.674 29.41 25.674 23.118C25.674 15.638 23.716 10.798 19.8 8.598C18.656 7.982 17.556 7.674 16.5 7.674C15.444 7.674 14.3 7.982 13.068 8.598C13.42 10.49 13.596 12.888 13.596 15.792C13.596 18.652 13.09 23.25 12.078 29.586C11.11 35.878 10.626 40.674 10.626 43.974V46.086C10.626 47.23 10.362 47.978 9.834 48.33C9.306 48.682 8.756 48.858 8.184 48.858C6.556 48.858 5.412 45.844 4.752 39.816C4.488 37.396 4.268 35.768 4.092 34.932C4.224 34.888 4.422 34.866 4.686 34.866C5.478 34.866 6.402 35.438 7.458 36.582V34.866C7.414 31.39 7.876 25.054 8.844 15.858C8.888 15.506 8.91 14.868 8.91 13.944C8.91 12.976 8.822 11.986 8.646 10.974C8.338 11.15 7.722 11.612 6.798 12.36C4.642 14.12 3.102 15 2.178 15C1.298 15 0.858 14.23 0.858 12.69L0.924 10.644ZM41.5805 17.04C41.5805 18.03 41.1605 19.41 40.3205 21.18C39.4805 22.92 38.6855 24.18 37.9355 24.96C37.8155 25.14 37.6355 25.23 37.3955 25.23C36.6455 25.23 36.2705 24.63 36.2705 23.43C36.2705 22.23 36.7955 20.55 37.8455 18.39C38.0555 17.94 38.1905 17.475 38.2505 16.995C38.3105 16.515 38.3405 16.245 38.3405 16.185C38.3705 16.095 38.3855 16.035 38.3855 16.005C38.4155 15.945 38.4305 15.885 38.4305 15.825C38.4605 15.735 38.4755 15.675 38.4755 15.645C38.5055 15.585 38.5355 15.54 38.5655 15.51C38.5955 15.45 38.6255 15.405 38.6555 15.375C38.7455 15.315 38.9855 15.285 39.3755 15.285C39.7655 15.285 40.2305 15.45 40.7705 15.78C41.3105 16.11 41.5805 16.53 41.5805 17.04ZM42.0305 37.02C42.3605 36.51 42.5855 36.255 42.7055 36.255C42.8555 36.255 42.9605 36.63 43.0205 37.38C43.1105 38.13 43.1555 39.135 43.1555 40.395C43.1555 41.625 42.8555 42.96 42.2555 44.4C41.6855 45.81 40.8455 46.95 39.7355 47.82C39.1055 48.3 38.5205 48.54 37.9805 48.54C37.4705 48.54 37.0355 48.42 36.6755 48.18C36.3455 47.97 36.0455 47.61 35.7755 47.1C35.3255 46.38 34.8755 45.45 34.4255 44.31C34.0055 43.17 33.7955 41.94 33.7955 40.62C33.7955 39.3 33.9005 37.965 34.1105 36.615C34.3205 35.265 34.4255 34.365 34.4255 33.915C34.4255 33.435 34.1855 32.835 33.7055 32.115C33.2255 31.365 32.9855 30.915 32.9855 30.765C32.9855 30.615 33.0305 30.465 33.1205 30.315C33.2405 30.135 33.3755 29.97 33.5255 29.82C33.7055 29.64 33.8705 29.49 34.0205 29.37C34.2005 29.25 34.3955 29.1 34.6055 28.92C35.2955 28.35 35.9255 28.065 36.4955 28.065C37.0655 28.065 37.5605 28.26 37.9805 28.65C38.4305 29.04 38.6405 29.715 38.6105 30.675C38.6105 31.635 38.3855 33.45 37.9355 36.12C37.3655 39.54 37.0805 41.505 37.0805 42.015C37.0805 42.525 37.2155 42.78 37.4855 42.78C38.0855 42.78 39.6005 40.86 42.0305 37.02ZM58.961 38.01C58.961 39.48 58.886 40.755 58.736 41.835C58.586 42.915 58.046 44.37 57.116 46.2C56.186 48 55.271 48.9 54.371 48.9C53.981 48.9 53.606 48.69 53.246 48.27C51.476 46.14 50.591 44.115 50.591 42.195C50.591 41.625 50.786 40.32 51.176 38.28C51.716 35.22 51.986 33.525 51.986 33.195C51.986 32.835 51.926 32.655 51.806 32.655C51.716 32.655 51.611 32.775 51.491 33.015C50.711 34.395 50.081 35.97 49.601 37.74C49.121 39.48 48.806 40.95 48.656 42.15C48.506 43.35 48.341 45.03 48.161 47.19C48.161 47.94 47.966 48.315 47.576 48.315C47.396 48.315 47.096 48.15 46.676 47.82C45.056 46.44 44.246 44.55 44.246 42.15C44.246 41.13 44.336 39.72 44.516 37.92C44.726 36.12 44.846 34.875 44.876 34.185C45.206 30.015 45.611 27.93 46.091 27.93C46.361 27.93 46.556 28.23 46.676 28.83C46.796 29.4 46.856 30.06 46.856 30.81C46.856 31.53 46.871 32.19 46.901 32.79C46.961 33.39 47.081 33.69 47.261 33.69C47.441 33.69 47.696 33.21 48.026 32.25C48.356 31.29 48.836 30.33 49.466 29.37C50.126 28.38 50.831 27.885 51.581 27.885C52.331 27.885 52.991 28.05 53.561 28.38C54.851 29.04 55.496 30.42 55.496 32.52C55.496 33.24 55.406 34.125 55.226 35.175C55.046 36.225 54.881 37.38 54.731 38.64C54.611 39.87 54.551 40.575 54.551 40.755C54.551 40.905 54.611 40.98 54.731 40.98C54.971 40.98 55.571 40.38 56.531 39.18C57.521 37.98 58.196 37.38 58.556 37.38C58.826 37.38 58.961 37.59 58.961 38.01ZM73.2074 42.06C73.2074 46.62 70.8974 48.9 66.2774 48.9C64.3574 48.9 62.9474 48.405 62.0474 47.415C61.1774 46.425 60.4124 44.91 59.7524 42.87C59.5124 42.09 59.3924 41.265 59.3924 40.395C59.3924 39.495 59.7824 38.31 60.5624 36.84C61.3724 35.34 62.2574 34.035 63.2174 32.925C63.3374 31.275 63.7124 30.45 64.3424 30.45C64.6724 30.45 64.8974 30.645 65.0174 31.035C65.6474 30.465 66.4124 29.91 67.3124 29.37C68.2124 28.83 69.0224 28.56 69.7424 28.56C70.4624 28.56 71.1974 28.98 71.9474 29.82C72.7274 30.66 73.1174 31.53 73.1174 32.43C73.1174 33.3 72.5024 34.5 71.2724 36.03C68.9624 38.91 67.1474 40.35 65.8274 40.35C64.8674 40.35 64.1174 39.555 63.5774 37.965C63.5474 38.025 63.3974 38.28 63.1274 38.73C62.8874 39.15 62.7074 39.465 62.5874 39.675C62.4974 39.885 62.3624 40.17 62.1824 40.53C61.8824 41.22 61.7324 41.835 61.7324 42.375C61.7324 43.605 62.3474 44.22 63.5774 44.22C65.6174 44.22 67.3424 43.8 68.7524 42.96C70.1924 42.09 71.6174 40.785 73.0274 39.045C73.1474 40.365 73.2074 41.37 73.2074 42.06ZM65.8724 36.615C66.3524 36.615 67.0574 36.03 67.9874 34.86C68.9474 33.69 69.4274 32.895 69.4274 32.475C69.4274 32.025 69.2624 31.8 68.9324 31.8C68.6324 31.8 68.0924 32.19 67.3124 32.97C66.5624 33.75 65.9624 34.425 65.5124 34.995C65.4524 35.355 65.4224 35.625 65.4224 35.805C65.4224 36.345 65.5724 36.615 65.8724 36.615ZM120.964 26.748C121.184 26.748 121.294 26.99 121.294 27.474C121.294 27.958 121.272 28.442 121.228 28.926C120.524 37.286 118.434 43.402 114.958 47.274C113.814 48.55 111.944 49.232 109.348 49.32C106.18 48.176 104.596 45.382 104.596 40.938C104.596 40.146 104.684 39.156 104.86 37.968C105.036 36.736 106.51 28.2 109.282 12.36C105.41 20.192 102.924 29.74 101.824 41.004C101.692 42.324 101.582 43.314 101.494 43.974C101.318 45.382 100.724 46.086 99.7115 46.086C98.3475 46.086 96.8955 45.052 95.3555 42.984C94.8275 42.28 94.5635 41.4 94.5635 40.344C94.5635 39.288 94.5855 38.122 94.6295 36.846C94.7175 35.57 94.8495 34.162 95.0255 32.622C95.2015 31.082 95.3335 29.85 95.4215 28.926C95.5095 28.002 95.7075 26.594 96.0155 24.702C96.3675 22.81 96.5875 21.6 96.6755 21.072C96.7635 20.5 97.0055 19.092 97.4015 16.848C97.8415 14.604 98.0835 13.35 98.1275 13.086C97.4675 13.746 96.8735 14.736 96.3455 16.056C95.8615 17.376 95.4655 18.454 95.1575 19.29C94.8495 20.082 94.5415 21.05 94.2335 22.194C93.9255 23.338 93.6615 24.328 93.4415 25.164C93.2215 26 92.9575 27.012 92.6495 28.2C92.3855 29.388 92.1875 30.29 92.0555 30.906C91.7475 32.05 91.2415 34.184 90.5375 37.308C89.8335 40.432 89.3715 42.412 89.1515 43.248C88.9755 44.04 88.8215 44.7 88.6895 45.228C88.6015 45.712 88.5135 46.064 88.4255 46.284C88.3815 46.46 88.2715 46.724 88.0955 47.076C87.7435 47.692 87.1715 48 86.3795 48C85.6315 48 84.9715 47.736 84.3995 47.208C83.8715 46.636 83.5195 46.152 83.3435 45.756C83.1675 45.316 82.9255 44.722 82.6175 43.974C82.3535 43.182 82.2215 42.566 82.2215 42.126C82.2215 41.686 82.3535 40.916 82.6175 39.816C82.8815 38.716 83.1895 37.352 83.5415 35.724C83.9375 34.096 84.1795 33.062 84.2675 32.622C84.3995 32.138 84.6195 31.148 84.9275 29.652C85.2795 28.156 85.5215 27.1 85.6535 26.484C85.7855 25.868 85.9835 24.9 86.2475 23.58C86.5115 22.216 86.7095 21.16 86.8415 20.412C86.9735 19.62 87.1495 18.63 87.3695 17.442C87.5895 16.21 87.7655 15.132 87.8975 14.208C88.3375 11.304 88.6015 9.28 88.6895 8.136V7.674C88.6895 6.882 88.5135 6.486 88.1615 6.486C87.8095 6.486 87.2375 7.102 86.4455 8.334C85.6535 9.566 85.1035 10.512 84.7955 11.172C84.4875 11.832 84.2675 12.734 84.1355 13.878C83.5195 19.994 81.9355 24.966 79.3835 28.794C79.0755 29.234 78.5915 29.454 77.9315 29.454C77.2715 29.454 76.5675 29.102 75.8195 28.398C75.1155 27.694 74.7635 26.968 74.7635 26.22C74.7635 21.732 76.2815 16.54 79.3175 10.644C80.5055 8.4 81.4735 5.078 82.2215 0.677999C83.4095 2.438 84.1355 3.604 84.3995 4.176C84.7075 4.748 85.0375 5.034 85.3895 5.034C85.5655 5.034 85.9615 4.77 86.5775 4.242C87.1935 3.714 88.0955 3.45 89.2835 3.45C90.5155 3.45 91.5055 3.758 92.2535 4.374C93.0015 4.99 93.4635 5.694 93.6395 6.486C93.8595 7.278 94.0135 8.466 94.1015 10.05C94.3655 9.83 94.8275 9.412 95.4875 8.796C96.8955 7.564 98.1275 6.948 99.1835 6.948C100.284 6.948 101.252 7.542 102.088 8.73C102.968 9.874 103.364 11.062 103.276 12.294C103.804 11.678 104.772 10.16 106.18 7.74C107.192 6.156 108.534 5.364 110.206 5.364C112.978 5.364 114.364 6.618 114.364 9.126C114.364 10.27 113.836 13.438 112.78 18.63C111.724 23.822 110.954 28.112 110.47 31.5C109.986 34.844 109.744 38.012 109.744 41.004V42.258C111.196 41.026 112.604 39.486 113.968 37.638C115.376 35.746 116.41 34.25 117.07 33.15C117.73 32.006 118.764 30.18 120.172 27.672C120.568 27.056 120.832 26.748 120.964 26.748ZM131.948 42.06C129.488 46.47 127.613 48.675 126.323 48.675C125.393 48.675 124.553 48.105 123.803 46.965C123.593 46.665 123.368 46.2 123.128 45.57C122.888 44.91 122.588 44.31 122.228 43.77C121.898 43.23 121.733 42.51 121.733 41.61C121.733 40.68 121.913 39.855 122.273 39.135C124.733 34.275 127.328 30.945 130.058 29.145C130.418 28.875 130.838 28.74 131.318 28.74C131.798 28.74 132.398 29.01 133.118 29.55C133.538 29.97 133.793 30.33 133.883 30.63C134.033 31.29 134.108 31.695 134.108 31.845C135.158 32.205 135.683 32.865 135.683 33.825C135.683 34.485 135.503 35.985 135.143 38.325C134.783 40.635 134.573 42.36 134.513 43.5C134.513 44.13 134.723 44.445 135.143 44.445C135.623 44.445 136.478 43.605 137.708 41.925C138.968 40.245 139.688 39.405 139.868 39.405C140.168 39.405 140.318 39.9 140.318 40.89L140.228 43.095C140.228 43.935 139.853 45.09 139.103 46.56C138.353 48 137.393 48.72 136.223 48.72C135.503 48.72 134.933 48.48 134.513 48C134.363 47.85 134.138 47.55 133.838 47.1C132.908 45.75 132.278 44.07 131.948 42.06ZM132.353 31.665C128.573 35.115 126.173 39.06 125.153 43.5C128.183 40.89 130.583 36.945 132.353 31.665ZM150.172 27.75C150.952 27.75 151.882 28.065 152.962 28.695C154.042 29.295 154.582 30.015 154.582 30.855C154.582 31.665 154.252 32.4 153.592 33.06C152.962 33.72 152.242 34.05 151.432 34.05C150.202 34.05 149.347 33.48 148.867 32.34C148.807 32.16 148.702 32.07 148.552 32.07C148.432 32.07 147.937 32.25 147.067 32.61C146.227 32.97 145.657 33.225 145.357 33.375C145.057 33.525 144.907 33.675 144.907 33.825C144.907 33.945 145.117 34.11 145.537 34.32C150.877 35.76 153.547 37.965 153.547 40.935C153.547 41.985 153.127 43.08 152.287 44.22C151.477 45.33 150.322 46.245 148.822 46.965C147.322 47.685 145.882 48.045 144.502 48.045C143.122 48.045 142.147 47.67 141.577 46.92C141.037 46.17 140.767 45.09 140.767 43.68C140.767 42.27 141.262 41.22 142.252 40.53C143.572 39.66 144.652 39.225 145.492 39.225C145.702 39.225 145.807 39.285 145.807 39.405C145.807 39.495 145.567 39.675 145.087 39.945C144.637 40.215 144.142 40.605 143.602 41.115C143.092 41.625 142.837 42.045 142.837 42.375C142.837 42.675 143.197 42.825 143.917 42.825C145.837 42.825 147.727 42.285 149.587 41.205C150.007 40.995 150.217 40.755 150.217 40.485C150.217 40.185 149.902 39.885 149.272 39.585C148.642 39.285 147.577 38.85 146.077 38.28C144.607 37.71 143.437 37.23 142.567 36.84C141.727 36.42 141.307 35.745 141.307 34.815C141.307 34.545 141.367 34.17 141.487 33.69C141.637 33.18 141.727 32.835 141.757 32.655C141.907 31.605 142.372 30.885 143.152 30.495C143.962 30.105 145.687 29.295 148.327 28.065C148.777 27.855 149.392 27.75 150.172 27.75ZM162.853 28.2L166.408 28.02C167.338 28.02 167.803 28.62 167.803 29.82C167.803 30.42 167.608 30.87 167.218 31.17C166.258 32.04 164.608 32.64 162.268 32.97C161.968 35.82 161.818 38.19 161.818 40.08C161.818 41.97 161.953 42.915 162.223 42.915C162.403 42.915 163.033 42.435 164.113 41.475C165.193 40.515 165.793 40.035 165.913 40.035C166.423 40.035 166.678 40.815 166.678 42.375C166.678 43.905 166.393 45.42 165.823 46.92C165.253 48.42 164.443 49.17 163.393 49.17C162.943 49.17 162.493 49.005 162.043 48.675C161.593 48.375 161.248 48.075 161.008 47.775C160.798 47.445 160.483 46.965 160.063 46.335C159.673 45.705 159.433 45.33 159.343 45.21C158.533 44.1 158.083 43.005 157.993 41.925C157.933 40.815 157.903 39.525 157.903 38.055C157.903 36.585 157.993 34.995 158.173 33.285C157.243 33.255 156.463 32.925 155.833 32.295C155.233 31.665 154.768 30.915 154.438 30.045C154.078 29.145 153.898 28.635 153.898 28.515C153.898 28.125 154.123 27.93 154.573 27.93L158.893 28.2C159.043 27.27 159.283 25.98 159.613 24.33C160.123 21.93 160.378 20.535 160.378 20.145L160.288 19.29C160.288 18.81 160.558 18.57 161.098 18.57C161.638 18.57 162.298 18.84 163.078 19.38C163.858 19.92 164.248 20.43 164.248 20.91C164.248 21.12 164.143 21.54 163.933 22.17C163.663 23.13 163.303 25.14 162.853 28.2ZM181.823 42.06C181.823 46.62 179.513 48.9 174.893 48.9C172.973 48.9 171.563 48.405 170.663 47.415C169.793 46.425 169.028 44.91 168.368 42.87C168.128 42.09 168.008 41.265 168.008 40.395C168.008 39.495 168.398 38.31 169.178 36.84C169.988 35.34 170.873 34.035 171.833 32.925C171.953 31.275 172.328 30.45 172.958 30.45C173.288 30.45 173.513 30.645 173.633 31.035C174.263 30.465 175.028 29.91 175.928 29.37C176.828 28.83 177.638 28.56 178.358 28.56C179.078 28.56 179.813 28.98 180.563 29.82C181.343 30.66 181.733 31.53 181.733 32.43C181.733 33.3 181.118 34.5 179.888 36.03C177.578 38.91 175.763 40.35 174.443 40.35C173.483 40.35 172.733 39.555 172.193 37.965C172.163 38.025 172.013 38.28 171.743 38.73C171.503 39.15 171.323 39.465 171.203 39.675C171.113 39.885 170.978 40.17 170.798 40.53C170.498 41.22 170.348 41.835 170.348 42.375C170.348 43.605 170.963 44.22 172.193 44.22C174.233 44.22 175.958 43.8 177.368 42.96C178.808 42.09 180.233 40.785 181.643 39.045C181.763 40.365 181.823 41.37 181.823 42.06ZM174.488 36.615C174.968 36.615 175.673 36.03 176.603 34.86C177.563 33.69 178.043 32.895 178.043 32.475C178.043 32.025 177.878 31.8 177.548 31.8C177.248 31.8 176.708 32.19 175.928 32.97C175.178 33.75 174.578 34.425 174.128 34.995C174.068 35.355 174.038 35.625 174.038 35.805C174.038 36.345 174.188 36.615 174.488 36.615ZM197.074 37.875C197.284 37.875 197.389 38.505 197.389 39.765C197.389 40.995 196.969 42.24 196.129 43.5C195.769 44.22 195.184 45.06 194.374 46.02C193.594 46.95 193.069 47.52 192.799 47.73C191.989 48.3 191.329 48.585 190.819 48.585C190.339 48.585 189.979 48.555 189.739 48.495C189.499 48.435 189.259 48.3 189.019 48.09C188.809 47.91 188.629 47.775 188.479 47.685C188.359 47.565 188.194 47.355 187.984 47.055C187.804 46.725 187.684 46.515 187.624 46.425C187.564 46.335 187.429 46.095 187.219 45.705C187.009 45.315 186.904 45.105 186.904 45.075C186.334 44.025 186.049 43.035 186.049 42.105C186.049 41.145 186.124 40.26 186.274 39.45C186.454 38.61 186.724 37.59 187.084 36.39C187.444 35.19 187.669 34.425 187.759 34.095C187.309 34.665 186.709 35.28 185.959 35.94C185.659 36.18 185.329 36.3 184.969 36.3C184.639 36.3 184.354 36.15 184.114 35.85C183.904 35.52 183.619 34.83 183.259 33.78C182.899 32.73 182.719 32.025 182.719 31.665C182.719 31.275 182.959 30.69 183.439 29.91C183.919 29.1 184.204 28.56 184.294 28.29C184.444 27.75 184.669 27.48 184.969 27.48C185.119 27.48 185.479 27.645 186.049 27.975C186.619 28.275 186.994 28.875 187.174 29.775C187.234 30.135 187.369 30.315 187.579 30.315C187.669 30.315 187.924 30.15 188.344 29.82C188.794 29.49 189.274 29.325 189.784 29.325C190.324 29.325 191.119 29.805 192.169 30.765C192.529 31.125 192.709 31.635 192.709 32.295C192.709 32.955 192.664 33.42 192.574 33.69C192.514 33.96 192.439 34.14 192.349 34.23C192.079 34.44 191.869 34.74 191.719 35.13C191.599 35.49 191.194 36.9 190.504 39.36C189.844 41.79 189.514 43.125 189.514 43.365C189.514 43.605 189.604 43.725 189.784 43.725C190.024 43.725 190.984 43.005 192.664 41.565C194.344 40.125 195.559 39.06 196.309 38.37C196.759 38.04 197.014 37.875 197.074 37.875ZM206.598 27.75C207.378 27.75 208.308 28.065 209.388 28.695C210.468 29.295 211.008 30.015 211.008 30.855C211.008 31.665 210.678 32.4 210.018 33.06C209.388 33.72 208.668 34.05 207.858 34.05C206.628 34.05 205.773 33.48 205.293 32.34C205.233 32.16 205.128 32.07 204.978 32.07C204.858 32.07 204.363 32.25 203.493 32.61C202.653 32.97 202.083 33.225 201.783 33.375C201.483 33.525 201.333 33.675 201.333 33.825C201.333 33.945 201.543 34.11 201.963 34.32C207.303 35.76 209.973 37.965 209.973 40.935C209.973 41.985 209.553 43.08 208.713 44.22C207.903 45.33 206.748 46.245 205.248 46.965C203.748 47.685 202.308 48.045 200.928 48.045C199.548 48.045 198.573 47.67 198.003 46.92C197.463 46.17 197.193 45.09 197.193 43.68C197.193 42.27 197.688 41.22 198.678 40.53C199.998 39.66 201.078 39.225 201.918 39.225C202.128 39.225 202.233 39.285 202.233 39.405C202.233 39.495 201.993 39.675 201.513 39.945C201.063 40.215 200.568 40.605 200.028 41.115C199.518 41.625 199.263 42.045 199.263 42.375C199.263 42.675 199.623 42.825 200.343 42.825C202.263 42.825 204.153 42.285 206.013 41.205C206.433 40.995 206.643 40.755 206.643 40.485C206.643 40.185 206.328 39.885 205.698 39.585C205.068 39.285 204.003 38.85 202.503 38.28C201.033 37.71 199.863 37.23 198.993 36.84C198.153 36.42 197.733 35.745 197.733 34.815C197.733 34.545 197.793 34.17 197.913 33.69C198.063 33.18 198.153 32.835 198.183 32.655C198.333 31.605 198.798 30.885 199.578 30.495C200.388 30.105 202.113 29.295 204.753 28.065C205.203 27.855 205.818 27.75 206.598 27.75Z" fill="white"/>
</svg>
